<svg width="14" height="10" viewBox="0 0 14 10" fill="none" xmlns="http://www.w3.org/2000/svg">
<path d="M5.81924 9.22989C5.68797 9.23016 5.55795 9.2045 5.43662 9.1544C5.3153 9.10429 5.20506 9.03071 5.11224 8.93789L0.87024 4.69489C0.774667 4.60271 0.698408 4.49242 0.645915 4.37046C0.593422 4.24849 0.565744 4.11729 0.564497 3.98451C0.56325 3.85174 0.588459 3.72004 0.638653 3.59711C0.688847 3.47418 0.763021 3.36248 0.856846 3.26852C0.950672 3.17456 1.06227 3.10023 1.18513 3.04986C1.30799 2.99949 1.43965 2.9741 1.57243 2.97516C1.70521 2.97622 1.83645 3.00371 1.95849 3.05603C2.08053 3.10835 2.19092 3.18445 2.28324 3.27989L5.81824 6.81489L12.1832 0.451894C12.3707 0.264253 12.6251 0.158785 12.8904 0.158691C13.1557 0.158598 13.4101 0.263886 13.5977 0.451394C13.7854 0.638902 13.8908 0.89327 13.8909 1.15854C13.891 1.42381 13.7857 1.67825 13.5982 1.86589L6.52624 8.93789C6.43342 9.03071 6.32318 9.10429 6.20186 9.1544C6.08053 9.2045 5.95051 9.23016 5.81924 9.22989V9.22989Z" fill="#64A0D6"/>
</svg>
