<svg width="32" height="24" viewBox="0 0 32 24" fill="none" xmlns="http://www.w3.org/2000/svg">
<path d="M30.625 9.60938H26.8281V5.61562C26.8281 4.99336 26.3254 4.49062 25.7031 4.49062H14.6289L10.5051 0.546094C10.4526 0.496973 10.3836 0.469366 10.3117 0.46875H1.375C0.752734 0.46875 0.25 0.971484 0.25 1.59375V22.4062C0.25 23.0285 0.752734 23.5312 1.375 23.5312H25.9141C26.3711 23.5312 26.7859 23.2535 26.9582 22.8281L31.6691 11.1562C31.7219 11.0227 31.75 10.8785 31.75 10.7344C31.75 10.1121 31.2473 9.60938 30.625 9.60938ZM24.2969 9.60938H6.36719C5.91016 9.60938 5.49531 9.88711 5.32305 10.3125L2.78125 16.6125V3H9.4082L13.6129 7.02187H24.2969V9.60938Z" fill="#FFCB3C" fill-opacity="0.85"/>
</svg>
