<svg width="20" height="20" viewBox="0 0 20 20" fill="none" xmlns="http://www.w3.org/2000/svg">
<g clip-path="url(#clip0_4_27)">
<path d="M7.57502 7.5C7.77094 6.94306 8.15765 6.47342 8.66665 6.17428C9.17565 5.87513 9.7741 5.76578 10.356 5.86559C10.9379 5.9654 11.4657 6.26794 11.8459 6.71961C12.2261 7.17128 12.4342 7.74293 12.4334 8.33333C12.4334 10 9.93335 10.8333 9.93335 10.8333M10 14.1667H10.0084M18.3334 10C18.3334 14.6024 14.6024 18.3333 10 18.3333C5.39765 18.3333 1.66669 14.6024 1.66669 10C1.66669 5.39763 5.39765 1.66667 10 1.66667C14.6024 1.66667 18.3334 5.39763 18.3334 10Z" stroke="#4F4F4F" stroke-width="2" stroke-linecap="round" stroke-linejoin="round"/>
</g>
<defs>
<clipPath id="clip0_4_27">
<rect width="20" height="20" fill="white"/>
</clipPath>
</defs>
</svg>
