<svg width="280" height="135" viewBox="0 0 280 135" fill="none" xmlns="http://www.w3.org/2000/svg">
<rect x="0.5" y="0.5" width="279" height="109.204" rx="54.602" fill="white" stroke="#DDDDDD"/>
<path d="M66.6904 99.2959L74.4866 128.586L98.2096 107.741L66.6904 99.2959Z" fill="white" stroke="#DDDDDD"/>
<rect x="53" y="92.7551" width="55" height="16.5306" fill="white"/>
<path d="M48.9541 45.297V47.2521H57.7842V45.297H59.8037V52.3654H46.9131V45.297H48.9541ZM48.9541 50.7111H57.7842V48.8204H48.9541V50.7111ZM59.8037 33.3732V44.4161H57.7627V33.3732H59.8037ZM43.9268 41.6661C47.5576 41.6876 52.3486 41.6876 56.5381 41.129L56.667 42.59C55.0127 42.8693 53.3047 43.0519 51.6182 43.1486V45.8341H49.5986V43.256C47.6543 43.3419 45.8066 43.3419 44.1846 43.3419L43.9268 41.6661ZM51.4678 34.7267C51.4678 36.5958 53.251 38.1857 56.1084 38.7872L55.2061 40.3126C52.9717 39.8292 51.2959 38.7013 50.458 37.1759C49.6201 38.8195 47.9443 40.0763 45.6455 40.6349L44.7217 39.045C47.6221 38.4005 49.3838 36.7032 49.3838 34.7267V33.8243H51.4678V34.7267ZM79.4619 33.3517V52.6017H77.5283V33.3517H79.4619ZM75.4014 33.8458V51.6564H73.4678V42.7189H69.708C68.5586 44.9532 66.7324 46.9083 64.0146 48.4982L62.8545 47.0372C66.9365 44.6095 68.9023 41.3761 69.2568 37.4122H63.7568V35.7365H71.2764C71.2656 37.6163 71.0078 39.4103 70.417 41.0861H73.4678V33.8458H75.4014ZM98.1533 35.1993V36.8322H87.3252V35.1993H91.8369V33.1798H93.8564V35.1993H98.1533ZM92.8252 37.6486C95.4248 37.6486 97.251 39.045 97.2725 41.129C97.251 43.2345 95.4248 44.6095 92.8252 44.6095C90.2041 44.6095 88.3994 43.2345 88.3994 41.129C88.3994 39.045 90.2041 37.6486 92.8252 37.6486ZM92.8252 39.2169C91.2998 39.2169 90.3115 39.9474 90.3115 41.129C90.3115 42.3107 91.2998 43.0841 92.8252 43.0841C94.3291 43.0841 95.3604 42.3107 95.3818 41.129C95.3604 39.9474 94.3291 39.2169 92.8252 39.2169ZM103.353 33.3517V44.7599H101.312V43.1486H98.1963V41.4943H101.312V39.3888H98.2178V37.713H101.312V33.3517H103.353ZM92.6963 45.5333V47.3595H101.333V45.5333H103.353V52.3654H90.6768V45.5333H92.6963ZM92.6963 50.754H101.333V48.9279H92.6963V50.754ZM111.646 34.2325C114.181 34.2111 116.136 35.6827 116.565 37.8419H120.325V33.3517H122.366V43.6857H120.325V39.5177H116.587C116.168 41.7306 114.202 43.213 111.646 43.213C108.702 43.213 106.597 41.3654 106.597 38.7013C106.597 36.0802 108.702 34.2111 111.646 34.2325ZM111.646 35.9298C109.819 35.9298 108.552 37.047 108.552 38.7013C108.552 40.3556 109.819 41.4943 111.646 41.4943C113.429 41.4943 114.696 40.3556 114.696 38.7013C114.696 37.047 113.429 35.9298 111.646 35.9298ZM111.839 44.6095V46.8439H120.325V44.6095H122.366V52.3654H109.819V44.6095H111.839ZM111.839 50.6896H120.325V48.4552H111.839V50.6896ZM140.456 33.2872V37.799H143.271V39.4747H140.456V43.879H138.415V33.2872H140.456ZM140.456 44.7814V49.2501H130.058V50.8615H141.122V52.4083H128.06V47.8107H138.437V46.3068H128.017V44.7814H140.456ZM136.825 34.9845V36.5958H125.353V34.9845H130.079V33.1798H132.12V34.9845H136.825ZM131.089 37.3263C133.903 37.3263 135.751 38.5294 135.751 40.4845C135.751 42.4396 133.903 43.6212 131.089 43.6212C128.253 43.6212 126.405 42.4396 126.405 40.4845C126.405 38.5294 128.253 37.3263 131.089 37.3263ZM131.089 38.7872C129.435 38.7872 128.36 39.4532 128.382 40.4845C128.36 41.5157 129.435 42.1388 131.089 42.1388C132.743 42.1388 133.817 41.5157 133.839 40.4845C133.817 39.4532 132.743 38.7872 131.089 38.7872ZM159.577 35.049C159.556 37.6056 162.692 40.0118 166.474 40.506L165.679 42.1818C162.531 41.6769 159.76 40.0441 158.524 37.7775C157.257 40.0548 154.496 41.6769 151.37 42.1818L150.554 40.506C154.335 40.0118 157.429 37.6271 157.45 35.049V33.9962H159.577V35.049ZM167.269 44.0724V45.7482H159.448V52.6017H157.45V45.7482H149.716V44.0724H167.269ZM180.782 46.0704C180.782 47.7247 181.599 49.4757 183.339 50.5177C185.111 49.3898 185.981 47.5421 185.981 46.0704V45.1466H187.979V46.0704C187.979 48.0685 189.29 50.0021 191.804 50.8185L190.794 52.3224C188.893 51.6671 187.604 50.3888 186.927 48.799C186.314 50.3566 185.165 51.7638 183.403 52.4943C181.556 51.796 180.385 50.4318 179.794 48.8634C179.096 50.3781 177.828 51.6564 176.013 52.3224L174.981 50.8185C177.452 49.9376 178.784 47.9396 178.806 46.0704V45.1466H180.782V46.0704ZM190.063 33.3732V44.3302H188.022V33.3732H190.063ZM179.622 34.4259C182.565 34.4259 184.735 36.295 184.735 38.9806C184.735 41.6447 182.565 43.4923 179.622 43.4923C176.679 43.4923 174.487 41.6447 174.487 38.9806C174.487 36.295 176.679 34.4259 179.622 34.4259ZM179.622 36.1661C177.796 36.1447 176.485 37.2833 176.485 38.9806C176.485 40.6564 177.796 41.795 179.622 41.795C181.427 41.795 182.737 40.6564 182.737 38.9806C182.737 37.2833 181.427 36.1447 179.622 36.1661ZM198.335 34.7911C200.945 34.7911 202.857 37.004 203.169 40.5704H207.144V33.3517H209.163V52.6447H207.144V42.2247H203.19C202.965 45.9738 201.01 48.3048 198.335 48.3048C195.456 48.3048 193.437 45.6837 193.458 41.5372C193.437 37.4122 195.456 34.7911 198.335 34.7911ZM198.335 36.6173C196.595 36.6173 195.392 38.5079 195.392 41.5372C195.392 44.588 196.595 46.4786 198.335 46.4786C200.075 46.4786 201.278 44.588 201.278 41.5372C201.278 38.5079 200.075 36.6173 198.335 36.6173ZM219.067 38.2501C219.067 41.7736 221.044 45.2755 223.987 46.6075L222.741 48.2404C220.55 47.1447 218.906 44.964 218.058 42.3322C217.209 45.1036 215.522 47.4454 213.31 48.6056L212.021 46.9513C215.007 45.5333 217.005 41.8165 217.005 38.2501V34.963H219.067V38.2501ZM228.177 33.3517V52.6447H226.157V41.4083H221.86V39.754H226.157V33.3517H228.177ZM103.03 63.3517V74.8029H100.989V69.9259H97.4014V68.2501H100.989V63.3517H103.03ZM96.585 75.34C100.624 75.34 103.095 76.672 103.095 78.9708C103.095 81.2697 100.624 82.5802 96.585 82.6017C92.5459 82.5802 90.0537 81.2697 90.0752 78.9708C90.0537 76.672 92.5459 75.34 96.585 75.34ZM96.585 76.9298C93.7705 76.9298 92.0947 77.6603 92.0947 78.9708C92.0947 80.2599 93.7705 81.0118 96.585 80.9904C99.3994 81.0118 101.075 80.2599 101.075 78.9708C101.075 77.6603 99.3994 76.9298 96.585 76.9298ZM93.8779 66.7462C93.8779 69.1954 95.6182 71.5587 98.5186 72.547L97.4658 74.1583C95.3066 73.4064 93.7168 71.8702 92.8896 69.9689C92.041 72.1281 90.3545 73.8575 88.0557 74.6954L86.9814 73.0626C89.9678 72.0314 91.7939 69.4318 91.7939 66.7677V66.338H87.626V64.6837H98.0029V66.338H93.8779V66.7462ZM121.12 63.3517V67.3693H123.913V69.0665H121.12V73.0841H119.079V63.3517H121.12ZM115.749 64.3829V72.1818H106.747V64.3829H115.749ZM108.745 66.0157V70.549H113.751V66.0157H108.745ZM121.12 73.965V78.8419H110.722V80.7325H121.786V82.3654H108.724V77.3165H119.101V75.5548H108.681V73.965H121.12ZM146.429 63.3517V77.6388H144.388V72.3322H141.38V70.6134H144.388V68.5939H141.38V66.9181H144.388V63.3517H146.429ZM141.165 64.8556V66.5099H139.317V72.9552C140.134 72.8907 140.918 72.8263 141.681 72.7404L141.767 74.2443C138.071 74.8243 133.753 74.8888 130.659 74.9103L130.401 73.1915L132.743 73.17V66.5099H130.938V64.8556H141.165ZM146.923 80.5392V82.1935H133.882V76.4786H135.944V80.5392H146.923ZM134.72 73.1486C135.59 73.1271 136.471 73.1056 137.362 73.0626V66.5099H134.72V73.1486ZM158.911 66.5314V68.1857H149.351V66.5314H153.132V63.9103H155.151V66.5314H158.911ZM154.142 69.3458C156.591 69.3458 158.31 71.172 158.331 73.7716C158.31 76.3927 156.591 78.2404 154.142 78.2404C151.735 78.2404 149.952 76.3927 149.974 73.7716C149.952 71.172 151.735 69.3458 154.142 69.3458ZM154.142 71.0431C152.745 71.0431 151.778 72.1818 151.778 73.7716C151.778 75.4044 152.745 76.5001 154.142 76.5001C155.517 76.5001 156.526 75.4044 156.526 73.7716C156.526 72.1818 155.517 71.0431 154.142 71.0431ZM165.872 63.3517V82.6017H163.938V73.0411H161.726V81.6993H159.792V63.7814H161.726V71.3654H163.938V63.3517H165.872ZM186.024 78.4982V80.1954H168.407V78.4982H172.618V73.4708C171.039 72.6007 170.083 71.215 170.083 69.4962C170.083 66.4669 173.048 64.4689 177.173 64.4689C181.319 64.4689 184.284 66.4669 184.284 69.4962C184.284 71.1935 183.36 72.5577 181.813 73.4279V78.4982H186.024ZM177.173 66.1017C174.144 66.1017 172.06 67.4122 172.06 69.4962C172.06 71.5587 174.144 72.9122 177.173 72.9122C180.181 72.9122 182.308 71.5587 182.308 69.4962C182.308 67.4122 180.181 66.1017 177.173 66.1017ZM174.638 78.4982H179.751V74.2013C178.967 74.4054 178.097 74.5021 177.173 74.5021C176.271 74.5021 175.411 74.4054 174.638 74.2228V78.4982ZM190.966 65.2208L190.772 76.2853H188.646L188.452 65.2208H190.966ZM189.72 80.9259C188.882 80.9259 188.173 80.2384 188.194 79.4005C188.173 78.5626 188.882 77.8751 189.72 77.8751C190.536 77.8751 191.245 78.5626 191.245 79.4005C191.245 80.2384 190.536 80.9259 189.72 80.9259Z" fill="#111111"/>
</svg>
