<svg width="20" height="20" viewBox="0 0 20 20" fill="none" xmlns="http://www.w3.org/2000/svg">
<path d="M13.3333 3.33333H15C15.442 3.33333 15.8659 3.50893 16.1785 3.82149C16.4911 4.13405 16.6666 4.55797 16.6666 5V16.6667C16.6666 17.1087 16.4911 17.5326 16.1785 17.8452C15.8659 18.1577 15.442 18.3333 15 18.3333H4.99998C4.55795 18.3333 4.13403 18.1577 3.82147 17.8452C3.50891 17.5326 3.33331 17.1087 3.33331 16.6667V5C3.33331 4.55797 3.50891 4.13405 3.82147 3.82149C4.13403 3.50893 4.55795 3.33333 4.99998 3.33333H6.66665M7.49998 1.66667H12.5C12.9602 1.66667 13.3333 2.03976 13.3333 2.5V4.16667C13.3333 4.6269 12.9602 5 12.5 5H7.49998C7.03974 5 6.66665 4.6269 6.66665 4.16667V2.5C6.66665 2.03976 7.03974 1.66667 7.49998 1.66667Z" stroke="#4F4F4F" stroke-width="2" stroke-linecap="round" stroke-linejoin="round"/>
</svg>
