<svg width="30" height="30" viewBox="0 0 30 30" fill="none" xmlns="http://www.w3.org/2000/svg">
<path d="M27.9375 0.9375H2.0625C1.44023 0.9375 0.9375 1.44023 0.9375 2.0625V27.9375C0.9375 28.5598 1.44023 29.0625 2.0625 29.0625H27.9375C28.5598 29.0625 29.0625 28.5598 29.0625 27.9375V2.0625C29.0625 1.44023 28.5598 0.9375 27.9375 0.9375ZM21.4512 9.85664L14.0473 20.1223C13.9438 20.2667 13.8074 20.3844 13.6493 20.4656C13.4913 20.5468 13.3162 20.5891 13.1385 20.5891C12.9608 20.5891 12.7857 20.5468 12.6276 20.4656C12.4696 20.3844 12.3332 20.2667 12.2297 20.1223L7.8457 14.0473C7.71211 13.8609 7.8457 13.6008 8.07422 13.6008H9.72305C10.0816 13.6008 10.4227 13.773 10.6336 14.0684L13.1367 17.5418L18.6633 9.87773C18.8742 9.58594 19.2117 9.41016 19.5738 9.41016H21.2227C21.4512 9.41016 21.5848 9.67031 21.4512 9.85664Z" fill="#00C434" fill-opacity="0.85"/>
</svg>
