<svg width="250" height="100" viewBox="0 0 250 100" fill="none" xmlns="http://www.w3.org/2000/svg">
<rect x="0.5" y="0.5" width="249" height="80.6326" rx="40.3163" fill="white" stroke="#DDDDDD"/>
<path d="M53.7929 74.0654L61.5163 95.5573L85.016 80.262L53.7929 74.0654Z" fill="white" stroke="#DDDDDD"/>
<rect x="47.3214" y="68.7075" width="49.1071" height="12.2449" fill="white"/>
<path d="M49.1219 42.3464V44.0007H41.2587V50.532H39.2606V44.0007H31.5047V42.3464H49.1219ZM46.909 32.3347V39.8972H33.7176V32.3347H46.909ZM35.7157 33.9675V38.3074H44.868V33.9675H35.7157ZM66.5887 31.3034V44.4304H64.5477V38.1355H60.7879C60.369 40.4128 58.4139 41.9597 55.868 41.9382C52.9676 41.9597 50.8192 40.0046 50.8192 37.2546C50.8192 34.4831 52.9676 32.5925 55.868 32.5925C58.4462 32.5925 60.4335 34.1394 60.8094 36.4812H64.5477V31.3034H66.5887ZM55.868 34.3113C54.0633 34.3113 52.7743 35.5359 52.7743 37.2546C52.7743 39.0163 54.0633 40.2195 55.868 40.198C57.6083 40.2195 58.9188 39.0163 58.9188 37.2546C58.9188 35.5359 57.6083 34.3113 55.868 34.3113ZM61.3251 43.6999C61.3251 46.1706 64.0751 48.2761 67.7489 48.8347L66.9325 50.446C63.9354 49.9519 61.4217 48.4587 60.2723 46.3425C59.1014 48.4372 56.5878 49.9519 53.5692 50.446L52.8387 48.8347C56.4051 48.2546 59.2196 46.0847 59.2411 43.6999V43.0124H61.3251V43.6999ZM78.3192 31.6257C82.659 31.6257 85.1942 32.7859 85.1942 34.9343C85.1942 37.0827 82.659 38.2644 78.3192 38.2644C73.9794 38.2644 71.4442 37.0827 71.4442 34.9343C71.4442 32.7859 73.9794 31.6257 78.3192 31.6257ZM78.3192 33.1296C75.2469 33.1296 73.5497 33.7956 73.5712 34.9343C73.5497 36.1159 75.2469 36.739 78.3192 36.739C81.3915 36.739 83.0887 36.1159 83.0887 34.9343C83.0887 33.7956 81.3915 33.1296 78.3192 33.1296ZM87.1063 39.446V41.0788H69.5536V39.446H87.1063ZM84.8934 42.5613V47.073H73.6786V48.7917H85.4305V50.3601H71.6805V45.5906H82.8739V44.0866H71.659V42.5613H84.8934ZM109.536 40.1765V41.8093H103.714V46.5144H111.556V48.1902H93.9383V46.5144H101.694V41.8093H96.1297V32.7859H109.364V34.4402H98.1708V40.1765H109.536ZM118.731 32.5281C121.696 32.5281 123.909 34.3972 123.909 37.1042C123.909 39.489 122.19 41.2185 119.763 41.5945V44.6452C121.471 44.57 123.179 44.4411 124.768 44.237L124.919 45.7624C120.858 46.4714 116.368 46.4929 113.038 46.4714L112.716 44.7956C114.209 44.7849 115.928 44.7741 117.722 44.7312V41.5945C115.229 41.24 113.532 39.4997 113.554 37.1042C113.532 34.3972 115.702 32.5281 118.731 32.5281ZM118.731 34.2468C116.884 34.2683 115.53 35.3855 115.53 37.1042C115.53 38.823 116.884 39.9616 118.731 39.9402C120.557 39.9616 121.89 38.823 121.911 37.1042C121.89 35.3855 120.557 34.2683 118.731 34.2468ZM127.97 31.3034V39.1238H130.934V40.8425H127.97V50.5534H125.929V31.3034H127.97ZM147.563 40.4343V42.1101H134.157V33.0222H147.391V34.698H136.177V40.4343H147.563ZM149.583 46.321V48.0183H131.966V46.321H149.583ZM160.841 32.2273V37.1042H153.966V39.1667C157.607 39.156 159.938 39.0593 162.753 38.6296L162.946 40.1765C159.981 40.6706 157.511 40.7781 153.536 40.7781H151.968V35.6218H158.843V33.7956H151.903V32.2273H160.841ZM166.942 42.196V46.9226H156.372V48.7702H167.587V50.3601H154.352V45.4187H164.858V43.7859H154.288V42.196H166.942ZM166.942 31.3034V41.4011H164.901V31.3034H166.942ZM185.29 31.3034V39.1238H188.083V40.7995H185.29V50.5534H183.249V31.3034H185.29ZM175.794 33.3659C175.794 38.1784 174.913 42.5613 171.432 46.2781L169.821 45.1394C172.636 42.2175 173.656 38.8982 173.86 35.0417H170.509V33.3659H175.794ZM181.1 33.3659C181.1 38.2429 180.499 43.3562 176.954 47.5456L175.321 46.4284C178.179 43.0876 179.038 39.156 179.188 35.0417H176.417V33.3659H181.1ZM206.624 46.4499V48.1472H189.007V46.4499H193.218V41.4226C191.639 40.5525 190.682 39.1667 190.682 37.448C190.682 34.4187 193.647 32.4206 197.772 32.4206C201.919 32.4206 204.884 34.4187 204.884 37.448C204.884 39.1452 203.96 40.5095 202.413 41.3796V46.4499H206.624ZM197.772 34.0534C194.743 34.0534 192.659 35.364 192.659 37.448C192.659 39.5105 194.743 40.864 197.772 40.864C200.78 40.864 202.907 39.5105 202.907 37.448C202.907 35.364 200.78 34.0534 197.772 34.0534ZM195.237 46.4499H200.35V42.1531C199.566 42.3572 198.696 42.4538 197.772 42.4538C196.87 42.4538 196.011 42.3572 195.237 42.1745V46.4499ZM211.179 44.1081C211.2 41.2937 212.038 40.4343 213.456 39.5534C214.358 38.9949 215.046 38.2214 215.046 37.0827C215.046 35.7292 214.015 34.8913 212.725 34.8913C211.565 34.8913 210.448 35.6003 210.341 37.1902H208.02C208.106 34.4616 210.169 32.9577 212.725 32.9577C215.518 32.9577 217.388 34.6335 217.388 37.0827C217.388 38.8015 216.571 39.9616 215.196 40.7995C213.907 41.573 213.413 42.3679 213.37 44.1081V44.237H211.179V44.1081ZM212.36 48.8777C211.522 48.8777 210.813 48.1902 210.835 47.3523C210.813 46.5144 211.522 45.8269 212.36 45.8269C213.177 45.8269 213.886 46.5144 213.886 47.3523C213.886 48.1902 213.177 48.8777 212.36 48.8777Z" fill="#111111"/>
</svg>
